<svg xmlns="http://www.w3.org/2000/svg" viewBox="0 0 661.16 1010.07"><defs><style>.cls-1,.cls-10,.cls-2,.cls-3,.cls-7,.cls-8,.cls-9{stroke:#231f20;}.cls-1,.cls-10,.cls-2,.cls-3,.cls-5,.cls-6,.cls-7,.cls-8,.cls-9{stroke-miterlimit:10;}.cls-2,.cls-6,.cls-7,.cls-9{fill:none;}.cls-2{stroke-width:2px;}.cls-10,.cls-3,.cls-4{fill:#231f20;}.cls-5,.cls-8{fill:#fff;}.cls-5{stroke:#fff;opacity:0.67;}.cls-6{stroke:#000;}.cls-10,.cls-8,.cls-9{stroke-width:1.03px;}</style></defs><g id="Layer_2" data-name="Layer 2"><g id="Hair"><path class="cls-1" d="M372.92,308.16s-11.67-57.8,23.18-127.83c4.18-8.41-38.25-33.6-57.73-47.1a8,8,0,0,1,2.28-14.32l77.87-23.8-29.15-74H366.94L314.26.55,80.63,124.26S26.06,178.61,16.35,224.69c-1.93,9.14,4.29,8.87,2.81,16.41-.82,4.13,4.74,1.3,12.76,4.31,8.25,3.09,6.14,43,6.31,47.69.39,10.47-27.09,4.22-22.09,19.9,6.68,20.95,18.47,48.5,38,87.82C112.78,519,201,536.9,201,536.9s-20.93-77,7.47-115.12-28.25-47-28.25-47-26.52-15.29,26.13-79.1c27-32.72,65.54-46.61,65.54-46.61S305.17,240.33,372.92,308.16Z"/></g><g id="Hair_copy" data-name="Hair copy"><path class="cls-1" d="M372.92,308.16s-11.67-57.8,23.18-127.83c4.18-8.41-38.25-33.6-57.73-47.1a8,8,0,0,1,2.28-14.32l77.87-23.8-29.15-74H366.94L314.26.55,118.7,104.11a217.48,217.48,0,0,0-86.56,82.56c-7.24,12.45-13.16,25.54-15.79,38-1.93,9.14-.91,6.57-2.4,14.11-.81,4.14.15,10.53-.11,19.7-.35,12.64-.48,29.52-.31,34.22.39,10.46,2.52,14.59,2.61,20.28.25,17,18.47,48.5,38,87.82C112.78,519,201,536.9,201,536.9s-20.93-77,7.47-115.12-28.25-47-28.25-47-26.52-15.29,26.13-79.1c27-32.72,65.54-46.61,65.54-46.61S305.17,240.33,372.92,308.16Z"/></g><g id="Head"><path class="cls-2" d="M513.18,148.19c21.66,23.22,38.72,56.65,39.55,104.55.39,22.59,34,30.44,56.71,51.6,8.54,8,19.43,10.64,24.91,15.28,12.79,10.85,12.71,24.93,1.49,36.15-1,1-10.43,5.76-11.2,7.15-2.82,5.09,3.91,8.06,10.34,9.69a25.64,25.64,0,0,1,19.19,22.12c.43,4.15-1.87,13.5-7.56,17.77l-5.7,3.56s28.7,19.62,16,35.95c-9.73,12.52-26.5,4.34-9.83,37.72,9.39,18.81-1.38,39.84-12.08,52.68a36,36,0,0,1-21.34,12.27c-19.65,3.55-24.87,10.09-87.11-3.92-22.69-5.11-15.21,35.63-10.59,54.57a47.91,47.91,0,0,1,.36,21.21c-1.88,9-5,20.92-9.25,27.63-7.48,11.75-8.19,48.05-8.19,48.05A81.57,81.57,0,0,1,485,736c-11.75,16.38-34.8,59.16-34.8,59.16s-17.52,22-2.57,59.37S465.33,891,475.16,916.5s12,61.77,26.46,92.55l-500-6.62s48.33-93.21,63-152.56,124.1-142,147.35-170.26c18.81-22.84,25.2-37.44,25.2-37.44s-12.19-18.7-2.44-36.59c4.14-7.59-23.73-66-36.27-73.14-62.37-35.6-82.94-52.8-82.94-52.8s-29.56-35-53.95-74.05S25,317.79,25,317.79,177.19,34,419.88,97.1a198.12,198.12,0,0,1,62.81,25.84"/><path class="cls-2" d="M482.69,122.94a158.41,158.41,0,0,1,30.49,25.25"/><path class="cls-3" d="M391,442.36s-7.38,18.67-22.21,19.22,43.38,88.58,76.32,84.65,107.62,9.24,107.62,9.24,72.12,26.46,92.79-28.61c18.64-49.66-12.63,24.22-80.16-6s-92.24-4.94-92.24-4.94S391.78,513.19,391,442.36Z"/><path class="cls-3" d="M541.19,299.62S539,377,501.1,429.19s60.4-54,70.84-52.27S568.81,329.92,541.19,299.62Z"/><path class="cls-4" d="M449,535.7h73s-5.07,26.23-8.75,35.46c-3.86,9.66,7.54,39.84,2.84,56.71s-8,24.48-12.1,31.82-5.43,37.68-6,45.52c-1.26,16.73-22.59,47-22.59,47s-20.86,40.15-25.13,42.93S475,720,464.48,702.58s25.61-60.52,25.61-60.52-3.39-42.48-13.63-54.12S449,535.7,449,535.7Z"/><path class="cls-3" d="M310.54,396.11s8.14-6.57,12.95-23,9.61,16.36,14.56,18.4,12.08-1,15.29,2,8.94,13.83,3.74,12.81-18.38-3.64-21-5.82-5.87-34.17-14.82-14.17C316.62,396.84,310.54,396.11,310.54,396.11Z"/><path class="cls-3" d="M258.2,337.41s14.53-1.64,17.62,5.1c2.57,5.6,14.71,6.34,21.54,11a10.84,10.84,0,0,1,2.27,2.83c2.35,3.53,8.16,12.73,6.64,14.87-6.19,8.64.37,10.58.37,10.58s5.85-9,3.9-14.09S287.06,334.63,276.81,334s-14-3.19-16.93-.6S258.2,337.41,258.2,337.41Z"/><polygon class="cls-4" points="541.2 206.41 515.99 195.84 482.69 228.51 509.82 227.94 528.19 229.17 533.07 244.62 544.45 244.62 541.2 206.41"/><path class="cls-5" d="M394.31,199l37.38,21.2h45.6l5.4,27.39s-24.84,9-18.86,41.12-25.33-17.19-25.33-17.19l-55.4,28.07S359.92,263.32,394.31,199Z"/><path class="cls-5" d="M381.6,328.36l50.83-19.44V285l66.2,57a7.13,7.13,0,0,1,2,8,210.16,210.16,0,0,0-12.19,48.44c-2.83,23.29-1.9,51-14.14,65.25-6.69,7.76-21.29,8.61-30.81,8.23a9.83,9.83,0,0,1-9.45-9.21l-1.37-102.05A14.47,14.47,0,0,0,425.48,349Z"/><path class="cls-5" d="M289.64,320.24s51.4-2.78,67.54,12.92l-27.13,9.35Z"/><path class="cls-5" d="M584.28,319.53s-5.08,13.28,7.35,37.58-15.26-16.39-15.26-16.39S573.26,326.31,584.28,319.53Z"/><path class="cls-5" d="M599.54,342.19s10.18-3.16,9.61-8.81-11,0-11,0A9,9,0,0,0,599.54,342.19Z"/><path class="cls-5" d="M317.43,395.33s4.3,3.25,6.22-13.58,4.76,17.37,4.76,17.37a74.57,74.57,0,0,0,0,11.27c.42,7.6-11,7.73-11,7.73S316.89,408.35,317.43,395.33Z"/><path class="cls-5" d="M287,385.55s6.52-2.17,8.69-13,11.4,0,11.4,0-2.72,13.57-7.6,13-2.44,10.76-2.44,10.76-10.38,3.9-10.05,0S283,394.94,287,385.55Z"/><path class="cls-5" d="M304.9,465.39h37.46s20.76,40,33,68c4.08,9.34,7.2,17.35,8.28,22.1,4.34,19,4.89,140,7.6,159s.71,36.37-11.58,73.28S360.27,727,360.27,727,367.33,585.36,304.9,465.39Z"/><path class="cls-5" d="M353.48,472H370s21.9,51.13,50.43,67.15-28.19,0-28.19,0S355.69,491.52,353.48,472Z"/><path class="cls-5" d="M187.81,982.7s6.62-81.18,47.49-96.64,30.92,9.38,56.33-3.32,43.62,58,69.58,55.23,66.27,14.91,48,23.74-41.42,6.08-34.24,17.12,17.27,27.06,17.27,27.06L183.94,1002Z"/><path class="cls-5" d="M464.1,592.72l28.77-25s11.4,20.63,0,48.85,0,49.95,0,49.95-5.79,40.17-11.85,53.74a51.54,51.54,0,0,0-4.43,25.51s-3.8-27.14-12.49-38.54,8.69-32.57,0-45.6S448.9,605.91,464.1,592.72Z"/><path class="cls-5" d="M333.67,353.43s10.27,5.46,14.61,8.77c8.33,6.33,4.45,15.7,19.63,27.9,9.93,8,17.84,32.43,17.84,32.43s10.93-28.76,3.85-40.24-18.42-.15-22-10.07S337.57,348.76,333.67,353.43Z"/><path class="cls-6" d="M285.32,323.37s-16.55-8.87-28.87,0S221,347.84,235.26,378.48s26.12,57.26,64.56,63.67,57.51,5.42,63,7.88,24-12.2,18.77-20.2c-10.31-15.77-6.14-22.67-18.77-38.44-12-15-36.53-43.37-39.42-31.05s-.42,19.71-12.25,30.55-4.9,31.64-4.9,31.64"/><path class="cls-6" d="M307.12,384.87s10.39-9.69,3.44-21.86-25.39-31.6-36.52-32.15-13.91-3-16.35,3.63-13.56,12.82-13.91,22.93,7.3,25.45,7.3,25.45L260.82,398s24.92,44.23,72.85,38,9.93,11.51,9.93,11.51"/><path class="cls-7" d="M300.86,358s-8.07,17.5-15.5,21.62-.16,28.05,15.5,40.15,25.44-3.6,37.8-6.43,5.77-5.15,14.85-2.06-11,14.67-11,14.67-15.7-1.29-16.73,4.63"/><path class="cls-8" d="M509.3,270.18l21.25,7.06a9.28,9.28,0,0,0,3.26-6.82C533.94,268.4,509.3,270.18,509.3,270.18Z"/><path class="cls-7" d="M491.17,259.73s15.94-2.48,29.18-7.54c11.31-4.32,14.83-1.35,14.83-1.35"/><path class="cls-7" d="M492.52,263s15.2-.15,26.58-5.43c12.14-5.63,17.85-2.75,17.85-2.75"/><path class="cls-9" d="M530.41,235.87s4.4,20.9,13.51,27.15-47.28,1.71-52.4,10.12"/><path class="cls-9" d="M504.65,269s27.36,10.13,29.84,9.68-.57,12.28-.57,12.28a59.35,59.35,0,0,1-17-3"/><path class="cls-9" d="M533.78,291.22a27.36,27.36,0,0,1-13.43,3"/><path class="cls-9" d="M533.78,291.22a6.07,6.07,0,0,1-4,3.9"/><path class="cls-7" d="M499.2,269s2.41,9.78,8.68,14.72,26.8-2.19,26.9,2.73"/><path class="cls-4" d="M506.06,269s29.62-1.71,33.67-2.86,3.95,3,13.22-2.76c9.53-6-2.34,7.48-2.34,7.48Z"/><path class="cls-1" d="M529.86,270.27c.39.05.39.05.71.76.5,1.11.15,5.58-.82,5.58a4.11,4.11,0,0,1-3.59-1.69s-.73-4.4,0-5.08Z"/><path class="cls-6" d="M659.1,446.94c1.93-6.31-5.66-20.38-5.66-20.38"/><path class="cls-10" d="M613.76,418s15-35.31,25-39.54S654,393.39,654,393.39s-1.27,18.36-12.27,21.17A134.46,134.46,0,0,1,619.61,418s18.1-3.38,21.3-2,19.31,11.7,18.49,29-20,9.63-20,9.63S637.45,432.93,613.76,418Z"/><path class="cls-10" d="M616.6,335.4s7.89,2.65,9.3,9.75c.87,4.43.59,6,.59,6s-17.39,3.34-16.62.06S608.45,345.2,616.6,335.4Z"/><path class="cls-9" d="M590.77,317.69a7.14,7.14,0,0,0,4.07,3.05c2.81.79,26.9-3.54,29.36,4.23s-.48,10.14-.48,10.14-1.62-4.87-5.19-1.62-12.44,12.66-6.87,26.29"/></g></g></svg>