<svg width="1440" height="867" viewBox="0 0 1440 867" fill="none" xmlns="http://www.w3.org/2000/svg">
<path d="M166.761 56.4722C478.261 372.972 806.762 175.639 838.762 56.4722C940.262 -294.028 1178.76 336.972 1056.76 388.972C934.762 440.972 994.262 -47.0276 714.262 235.472C434.262 517.972 996.761 204.472 804.761 466.472C651.161 676.072 265.594 963.805 203.261 834.972C134.928 304.805 -41.2153 -154.842 166.761 56.4722Z" fill="#287171"/>
<path d="M491.261 14.9719C392.261 -143.028 1016.3 372.359 1046.26 253.972C1141.28 -94.2334 1502.97 412.312 1388.76 463.972C1274.55 515.632 753.392 250.426 491.262 531.077C229.131 811.728 1675.01 426.687 1495.26 686.972C1351.46 895.2 -8.38385 763.462 -66.739 635.472C-130.711 108.776 771.014 461.446 491.261 14.9719Z" fill="#2D8989"/>
</svg>
