<svg id="Capa_1" enable-background="new 0 0 512 512" height="512" viewBox="0 0 512 512" width="512" xmlns="http://www.w3.org/2000/svg"><g><g><path d="m441.87 70.13h-371.74v-42.427c0-11.158 9.045-20.203 20.203-20.203h331.333c11.158 0 20.203 9.045 20.203 20.203v42.427z" fill="#e4fbef"/></g><g><path d="m421.667 7.5h-24.244c11.158 0 20.203 9.045 20.203 20.203v42.427h24.244v-42.427c0-11.158-9.045-20.203-20.203-20.203z" fill="#d3effb"/></g><g><path d="m421.667 504.5h-331.334c-11.158 0-20.203-9.045-20.203-20.203v-381.842h371.74v381.841c0 11.159-9.045 20.204-20.203 20.204z" fill="#e4fbef"/></g><g><path d="m417.626 102.455v381.841c0 11.158-9.045 20.203-20.203 20.203h24.244c11.158 0 20.203-9.045 20.203-20.203v-381.841z" fill="#d3effb"/></g><g><path d="m441.87 102.455h-371.74c-8.926 0-16.163-7.236-16.163-16.163 0-8.926 7.236-16.163 16.163-16.163h371.74c8.926 0 16.163 7.236 16.163 16.163 0 8.927-7.237 16.163-16.163 16.163z" fill="#df75a5"/></g><g><path d="m441.87 70.13h-31.315c8.926 0 16.163 7.236 16.163 16.163s-7.236 16.163-16.163 16.163h31.315c8.926 0 16.163-7.236 16.163-16.163s-7.237-16.163-16.163-16.163z" fill="#dd5790"/></g><g><path d="m256 472.175h109.366c12.126 0 21.956-9.83 21.956-21.956v-20.547c0-6.367-2.764-12.421-7.576-16.592-4.812-4.17-7.576-10.224-7.576-16.592v-134.424c0-5.823 2.313-11.407 6.431-15.525l2.291-2.291c4.117-4.117 6.431-9.702 6.431-15.525v-24.241c0-52.528-89.904-69.701-131.321-69.701s-131.321 17.173-131.321 69.701v24.241c0 5.823 2.313 11.407 6.431 15.525l2.291 2.291c4.117 4.117 6.431 9.702 6.431 15.525v134.425c0 6.367-2.764 12.421-7.576 16.592-4.812 4.17-7.576 10.224-7.576 16.592v20.547c0 12.126 9.83 21.956 21.956 21.956h109.362z" fill="#f1d59d"/></g><g><path d="m378.599 246.539 2.291-2.291c4.117-4.117 6.431-9.702 6.431-15.525v-24.241c0-52.528-89.904-69.701-131.321-69.701-3.544 0-7.45.129-11.617.392 44.534 2.809 119.704 21.275 119.704 69.309v24.241c0 5.823-2.313 11.407-6.431 15.525l-2.291 2.291c-4.117 4.117-6.431 9.702-6.431 15.525v134.425c0 6.367 2.764 12.421 7.576 16.592s7.576 10.224 7.576 16.592v20.547c0 12.126-9.83 21.956-21.956 21.956h23.234c12.126 0 21.956-9.83 21.956-21.956v-20.547c0-6.367-2.764-12.421-7.576-16.592s-7.576-10.224-7.576-16.592v-134.425c.001-5.823 2.314-11.408 6.431-15.525z" fill="#efcb84"/></g><g><path d="m372.169 262.064 37.376 117.176-37.376 17.249z" fill="#ffe07d"/></g><g><path d="m256 134.78c-41.417 0-131.321 17.173-131.321 69.701v24.241c0 1.087.107 2.161.265 3.223 5.355-48.732 90.945-64.84 131.057-64.84 40.111 0 125.701 16.108 131.057 64.84.158-1.063.265-2.136.265-3.223v-24.241c-.002-52.528-89.906-69.701-131.323-69.701z" fill="#dab46b"/></g><g><path d="m256 134.78c-3.544 0-7.45.129-11.617.392 41.788 2.636 110.537 19.063 118.857 60.765 13.039 9.271 22.179 21.113 23.816 36.009.158-1.063.265-2.136.265-3.223v-24.241c0-52.529-89.904-69.702-131.321-69.702z" fill="#cba763"/></g><g><path d="m139.831 262.064-37.376 15.149 37.376 119.276z" fill="#ffe07d"/></g><g><circle cx="329.742" cy="433.789" r="8.081"/><circle cx="329.742" cy="401.463" r="8.081"/><circle cx="297.417" cy="433.789" r="8.081"/><path d="m441.87 192.03c-4.143 0-7.5 3.358-7.5 7.5v284.77c0 7.003-5.697 12.7-12.7 12.7h-331.34c-7.003 0-12.7-5.697-12.7-12.7v-65.34c0-4.142-3.357-7.5-7.5-7.5s-7.5 3.358-7.5 7.5v65.34c0 15.274 12.426 27.7 27.7 27.7h331.34c15.274 0 27.7-12.426 27.7-27.7v-284.77c0-4.142-3.357-7.5-7.5-7.5z"/><path d="m465.532 86.292c0-10.426-6.781-19.292-16.162-22.437v-36.152c0-15.275-12.428-27.703-27.703-27.703h-331.334c-15.275 0-27.703 12.428-27.703 27.703v36.152c-9.381 3.145-16.162 12.011-16.162 22.437s6.781 19.292 16.162 22.437v275.23c0 4.142 3.357 7.5 7.5 7.5s7.5-3.358 7.5-7.5v-274.004h356.74v54.575c0 4.142 3.357 7.5 7.5 7.5s7.5-3.358 7.5-7.5v-55.8c9.381-3.145 16.162-12.011 16.162-22.438zm-375.199-71.292h331.334c7.005 0 12.703 5.699 12.703 12.703v34.927h-356.74v-34.927c0-7.004 5.698-12.703 12.703-12.703zm351.537 79.955h-371.74c-4.776 0-8.662-3.886-8.662-8.663s3.886-8.663 8.662-8.663h371.74c4.776 0 8.662 3.886 8.662 8.663s-3.886 8.663-8.662 8.663z"/><path d="m95.298 279.456 36.98 118.013c-.26 3.829-2.014 7.412-4.935 9.944-6.46 5.599-10.164 13.712-10.164 22.259v20.547c0 16.242 13.214 29.456 29.456 29.456h218.73c16.242 0 29.456-13.214 29.456-29.456v-20.547c0-8.547-3.704-16.661-10.165-22.26-2.009-1.741-3.47-3.98-4.274-6.454l32.305-14.909c3.437-1.585 5.152-5.483 4.003-9.089l-36.972-115.91c.24-3.479 1.695-6.719 4.185-9.209l2.291-2.291c5.563-5.563 8.627-12.96 8.627-20.828v-24.241c0-58.331-93.527-77.202-138.821-77.202s-138.821 18.871-138.821 77.202v24.241c0 7.868 3.063 15.265 8.627 20.828l2.292 2.292c1.574 1.573 2.724 3.451 3.43 5.494l-31.89 12.926c-3.619 1.468-5.508 5.467-4.34 9.194zm284.523 170.763c0 7.971-6.485 14.456-14.456 14.456h-218.73c-7.971 0-14.456-6.485-14.456-14.456v-20.547c0-4.195 1.818-8.177 4.987-10.923 6.44-5.581 10.141-13.662 10.163-22.183 0-.044.002-134.37.002-134.37 0-.021 0-.042 0-.063v-.069c0-7.869-3.064-15.266-8.627-20.828l-2.291-2.292c-1.977-1.977-3.299-4.428-3.885-7.094 3.078-22.446 27.459-36.073 47.536-43.574 27.006-10.09 57.785-13.671 75.937-13.671s48.931 3.581 75.937 13.671c20.077 7.501 44.458 21.129 47.536 43.574-.586 2.666-1.909 5.117-3.885 7.094l-2.29 2.291c-5.563 5.562-8.628 12.959-8.628 20.829v.004.083s.006 134.603.009 134.667c.094 8.427 3.779 16.405 10.155 21.929 3.17 2.748 4.988 6.729 4.988 10.924v20.548zm-.152-65.451v-74.51l20.717 64.949zm-202.119-227.854c27.505-10.801 59.45-14.634 78.45-14.634s50.945 3.833 78.45 14.634c19.457 7.641 42.422 21.224 45.106 43.252-9.708-10.3-23.935-19.052-42.37-25.94-28.88-10.791-61.784-14.62-81.187-14.62s-52.307 3.829-81.187 14.62c-18.435 6.888-32.662 15.64-42.37 25.94 2.686-22.028 25.651-35.611 45.108-43.252zm-45.219 116.283v74.276l-20.652-65.905z"/></g></g></svg>